<mxfile host="app.diagrams.net" modified="2024-04-11T23:34:44.542Z" agent="Mozilla/5.0 (Windows NT 10.0; Win64; x64) AppleWebKit/537.36 (KHTML, like Gecko) Chrome/123.0.0.0 Safari/537.36" etag="ROOrIUfCSQ08WIm0jqin" version="24.2.3" type="google">
  <diagram name="Página-1" id="YA7ydrBfAROpvFAgnlAH">
    <mxGraphModel dx="1434" dy="772" grid="1" gridSize="10" guides="1" tooltips="1" connect="1" arrows="1" fold="1" page="1" pageScale="1" pageWidth="827" pageHeight="1169" math="0" shadow="0">
      <root>
        <mxCell id="0" />
        <mxCell id="1" parent="0" />
        <mxCell id="KoA3YsvBFlQsMVqC4e15-1" value="&amp;lt;&amp;lt;Serviço Cardapio&amp;gt;" style="swimlane;whiteSpace=wrap;html=1;" vertex="1" parent="1">
          <mxGeometry x="170" y="70" width="200" height="120" as="geometry">
            <mxRectangle x="170" y="70" width="200" height="30" as="alternateBounds" />
          </mxGeometry>
        </mxCell>
        <mxCell id="KoA3YsvBFlQsMVqC4e15-2" value="&lt;font style=&quot;font-size: 14px;&quot;&gt;+ Obter_cardapio&lt;/font&gt;" style="text;html=1;align=center;verticalAlign=middle;resizable=0;points=[];autosize=1;strokeColor=none;fillColor=none;" vertex="1" parent="KoA3YsvBFlQsMVqC4e15-1">
          <mxGeometry x="35" y="30" width="130" height="30" as="geometry" />
        </mxCell>
        <mxCell id="KoA3YsvBFlQsMVqC4e15-3" value="&lt;font style=&quot;font-size: 14px;&quot;&gt;- Salvar_itens_selecionados&lt;/font&gt;" style="text;html=1;align=center;verticalAlign=middle;resizable=0;points=[];autosize=1;strokeColor=none;fillColor=none;" vertex="1" parent="KoA3YsvBFlQsMVqC4e15-1">
          <mxGeometry y="60" width="200" height="30" as="geometry" />
        </mxCell>
        <mxCell id="KoA3YsvBFlQsMVqC4e15-7" value="&lt;font style=&quot;font-size: 14px;&quot;&gt;+Atualizar&lt;/font&gt;" style="text;html=1;align=center;verticalAlign=middle;whiteSpace=wrap;rounded=0;" vertex="1" parent="KoA3YsvBFlQsMVqC4e15-1">
          <mxGeometry x="70" y="90" width="60" height="30" as="geometry" />
        </mxCell>
        <mxCell id="KoA3YsvBFlQsMVqC4e15-4" value="&amp;lt;&amp;lt;Serviço Realizar_agendamento&amp;gt;&amp;gt;" style="swimlane;whiteSpace=wrap;html=1;" vertex="1" parent="1">
          <mxGeometry x="424" y="65" width="216" height="150" as="geometry">
            <mxRectangle x="424" y="65" width="240" height="30" as="alternateBounds" />
          </mxGeometry>
        </mxCell>
        <mxCell id="KoA3YsvBFlQsMVqC4e15-5" value="&lt;p style=&quot;font-size: 14px;&quot; class=&quot;MsoNormal&quot;&gt;&lt;font style=&quot;font-size: 14px;&quot;&gt;+Lista_de_produtos&lt;/font&gt;&lt;/p&gt;&lt;p style=&quot;font-size: 14px;&quot; class=&quot;MsoNormal&quot;&gt;&lt;font style=&quot;font-size: 14px;&quot;&gt;+Obter_cardapio&lt;/font&gt;&lt;/p&gt;&lt;p style=&quot;font-size: 14px;&quot; class=&quot;MsoNormal&quot;&gt;&lt;font style=&quot;font-size: 14px;&quot;&gt;-Produtos_selecionados&lt;/font&gt;&lt;/p&gt;&lt;p style=&quot;font-size: 14px;&quot; class=&quot;MsoNormal&quot;&gt;&lt;font style=&quot;font-size: 14px;&quot;&gt;+Agendar&lt;/font&gt;&lt;/p&gt;" style="text;html=1;align=center;verticalAlign=middle;resizable=0;points=[];autosize=1;strokeColor=none;fillColor=none;" vertex="1" parent="KoA3YsvBFlQsMVqC4e15-4">
          <mxGeometry x="23" y="5" width="170" height="150" as="geometry" />
        </mxCell>
        <mxCell id="KoA3YsvBFlQsMVqC4e15-8" value="&amp;lt;&amp;lt;Serviço Pedido &amp;gt;&amp;gt;" style="swimlane;whiteSpace=wrap;html=1;" vertex="1" parent="1">
          <mxGeometry x="160" y="290" width="200" height="120" as="geometry">
            <mxRectangle x="170" y="70" width="200" height="30" as="alternateBounds" />
          </mxGeometry>
        </mxCell>
        <mxCell id="KoA3YsvBFlQsMVqC4e15-9" value="&lt;font style=&quot;font-size: 14px;&quot;&gt;+ Deletar_pedido&lt;/font&gt;" style="text;html=1;align=center;verticalAlign=middle;resizable=0;points=[];autosize=1;strokeColor=none;fillColor=none;" vertex="1" parent="KoA3YsvBFlQsMVqC4e15-8">
          <mxGeometry x="35" y="30" width="130" height="30" as="geometry" />
        </mxCell>
        <mxCell id="KoA3YsvBFlQsMVqC4e15-10" value="&lt;font style=&quot;font-size: 14px;&quot;&gt;+Atualizar_pedido&lt;/font&gt;" style="text;html=1;align=center;verticalAlign=middle;resizable=0;points=[];autosize=1;strokeColor=none;fillColor=none;" vertex="1" parent="KoA3YsvBFlQsMVqC4e15-8">
          <mxGeometry x="30" y="60" width="140" height="30" as="geometry" />
        </mxCell>
        <mxCell id="KoA3YsvBFlQsMVqC4e15-11" value="&lt;font style=&quot;font-size: 14px;&quot;&gt;+Adicionar_pedido&lt;/font&gt;" style="text;html=1;align=center;verticalAlign=middle;whiteSpace=wrap;rounded=0;" vertex="1" parent="KoA3YsvBFlQsMVqC4e15-8">
          <mxGeometry x="70" y="90" width="60" height="30" as="geometry" />
        </mxCell>
        <mxCell id="KoA3YsvBFlQsMVqC4e15-13" value="&amp;lt;&amp;lt;Servico Gerenciamento_estoque&amp;gt;&amp;gt;" style="swimlane;whiteSpace=wrap;html=1;" vertex="1" parent="1">
          <mxGeometry x="424" y="290" width="246" height="120" as="geometry">
            <mxRectangle x="170" y="70" width="200" height="30" as="alternateBounds" />
          </mxGeometry>
        </mxCell>
        <mxCell id="KoA3YsvBFlQsMVqC4e15-14" value="&lt;span style=&quot;font-size: 14px;&quot;&gt;+Atualizar_estoque&lt;/span&gt;" style="text;html=1;align=center;verticalAlign=middle;resizable=0;points=[];autosize=1;strokeColor=none;fillColor=none;" vertex="1" parent="KoA3YsvBFlQsMVqC4e15-13">
          <mxGeometry x="30" y="30" width="140" height="30" as="geometry" />
        </mxCell>
        <mxCell id="KoA3YsvBFlQsMVqC4e15-15" value="&lt;font style=&quot;font-size: 14px;&quot;&gt;+Adicionar_produto&lt;/font&gt;" style="text;html=1;align=center;verticalAlign=middle;resizable=0;points=[];autosize=1;strokeColor=none;fillColor=none;" vertex="1" parent="KoA3YsvBFlQsMVqC4e15-13">
          <mxGeometry x="25" y="60" width="150" height="30" as="geometry" />
        </mxCell>
        <mxCell id="KoA3YsvBFlQsMVqC4e15-16" value="&lt;font style=&quot;font-size: 14px;&quot;&gt;+Deletar_Produto&lt;/font&gt;" style="text;html=1;align=center;verticalAlign=middle;whiteSpace=wrap;rounded=0;" vertex="1" parent="KoA3YsvBFlQsMVqC4e15-13">
          <mxGeometry x="66" y="90" width="60" height="30" as="geometry" />
        </mxCell>
        <mxCell id="KoA3YsvBFlQsMVqC4e15-17" value="&amp;lt;&amp;lt;Serviço Cliente&amp;gt;" style="swimlane;whiteSpace=wrap;html=1;" vertex="1" parent="1">
          <mxGeometry x="160" y="470" width="200" height="150" as="geometry">
            <mxRectangle x="170" y="70" width="200" height="30" as="alternateBounds" />
          </mxGeometry>
        </mxCell>
        <mxCell id="KoA3YsvBFlQsMVqC4e15-18" value="&lt;font style=&quot;font-size: 14px;&quot;&gt;+ Obter_cardapio&lt;/font&gt;" style="text;html=1;align=center;verticalAlign=middle;resizable=0;points=[];autosize=1;strokeColor=none;fillColor=none;" vertex="1" parent="KoA3YsvBFlQsMVqC4e15-17">
          <mxGeometry x="35" y="30" width="130" height="30" as="geometry" />
        </mxCell>
        <mxCell id="KoA3YsvBFlQsMVqC4e15-21" value="&lt;font style=&quot;font-size: 14px;&quot;&gt;+ Realizar_pedido&lt;/font&gt;" style="text;html=1;align=center;verticalAlign=middle;resizable=0;points=[];autosize=1;strokeColor=none;fillColor=none;" vertex="1" parent="KoA3YsvBFlQsMVqC4e15-17">
          <mxGeometry x="30" y="60" width="140" height="30" as="geometry" />
        </mxCell>
        <mxCell id="KoA3YsvBFlQsMVqC4e15-22" value="&lt;font style=&quot;font-size: 14px;&quot;&gt;+ Selecionar_pedido&lt;/font&gt;" style="text;html=1;align=center;verticalAlign=middle;resizable=0;points=[];autosize=1;strokeColor=none;fillColor=none;" vertex="1" parent="KoA3YsvBFlQsMVqC4e15-17">
          <mxGeometry x="25" y="85" width="150" height="30" as="geometry" />
        </mxCell>
        <mxCell id="KoA3YsvBFlQsMVqC4e15-23" value="&lt;font style=&quot;font-size: 14px;&quot;&gt;+ Historico_de_pedidos&lt;/font&gt;" style="text;html=1;align=center;verticalAlign=middle;resizable=0;points=[];autosize=1;strokeColor=none;fillColor=none;" vertex="1" parent="KoA3YsvBFlQsMVqC4e15-17">
          <mxGeometry x="15" y="115" width="170" height="30" as="geometry" />
        </mxCell>
      </root>
    </mxGraphModel>
  </diagram>
</mxfile>
